<svg xmlns="http://www.w3.org/2000/svg" xmlns:xlink="http://www.w3.org/1999/xlink" width="20" height="20" viewBox="0 0 12 12" fill="none"><defs><rect id="path_0" x="0" y="0" width="12" height="12" /></defs><g opacity="1" transform="translate(0 0)  rotate(0 6 6)"><mask id="bg-mask-0" fill="white"><use xlink:href="#path_0"></use></mask><g mask="url(#bg-mask-0)" ><g opacity="1" transform="translate(0.9999999960937498 3.9999999960937505)  rotate(0 5.000000003906251 1.7500000019531252)"><path id="路径 1" fill-rule="evenodd" style="fill:#FFFFFF" transform="translate(5.5000000078125 0)  rotate(0 2.250000000000001 1.7500000019531252)" opacity="1" d="M2.75,3.5L4.5,1.75L2.75,0L2.05,0.7L2.6,1.25L0,1.25L0,2.25L2.6,2.25L2.05,2.8L2.75,3.5Z " /><path id="路径 2" fill-rule="evenodd" style="fill:#FFFFFF" transform="translate(0 0)  rotate(0 2.25 1.7500000019531252)" opacity="1" d="M1.75,0L0,1.75L1.75,3.5L2.45,2.8L1.9,2.25L4.5,2.25L4.5,1.25L1.9,1.25L2.45,0.7L1.75,0Z " /></g></g></g></svg>